<svg xmlns="http://www.w3.org/2000/svg" viewBox="-2.216505 -2.216505 4.43301 4.43301" width="64" height="64">
  <defs>
    <linearGradient gradientUnits="userSpaceOnUse" id="gradient" x1="-2.216505" y1="2.216505" x2="2.216505" y2="-2.216505">
      <stop offset="10%" stop-color="#00ffff" />
      <stop offset="90%" stop-color="#ff00ff" />
    </linearGradient>
  </defs>
  <mask id="inner">
    <rect x="-2.216505" y="-2.216505" width="4.43301" height="4.43301" fill="white" />
    <path d="M 0.21651 -1.625 Q 0.0 -1.75 -0.21651 -1.625 L -1.29904 -1.0 Q -1.51555 -0.875 -1.51555 -0.625 L -1.51555 0.375 Q -1.51555 0.625 -1.29904 0.5 L -1.29904 0.5 Q -1.08253 0.375 -1.08253 0.125 L -1.08253 -0.5 A 0.216505 0.216505 0 0 1 -0.64952 -0.5 L -0.64952 0.125 Q -0.64952 0.625 -1.08253 0.875 L -1.08254 0.875 Q -1.29904 1.0 -1.08254 1.125 L -0.43301 1.5 Q -0.21651 1.625 -0.21651 1.375 L -0.21651 1.0 A 0.216505 0.216505 0 0 1 0.2165 1.0 L 0.2165 1.375 Q 0.2165 1.625 0.43301 1.5 L 1.08254 1.125 Q 1.29904 1.0 1.08254 0.875 L 0.21651 0.375 Q -0.21651 0.125 -0.2165 -0.375 L -0.2165 -1.0 A 0.216505 0.216505 0 0 1 0.2165 -1.0 L 0.21651 -0.375 Q 0.2165 -0.125 0.43301 0.0 L 1.29904 0.5 Q 1.51555 0.625 1.51555 0.375 L 1.51555 0.375 Q 1.51555 0.125 1.29904 0.0 L 0.75777 -0.3125 A 0.216505 0.216505 0 0 1 0.97428 -0.6875 L 1.29904 -0.5 Q 1.51555 -0.375 1.51555 -0.625 L 1.51555 -0.625 Q 1.51555 -0.875 1.29904 -1.0 Z " fill="black" />
  </mask>
  <path mask="url(#inner)" d="M 0.43301 -2.0 Q 0.0 -2.25 -0.43301 -2.0 L -1.51555 -1.375 Q -1.94856 -1.125 -1.94856 -0.625 L -1.94856 0.625 Q -1.94856 1.125 -1.51555 1.375 L -0.43301 2.0 Q 0.0 2.25 0.43301 2.0 L 1.51555 1.375 Q 1.94856 1.125 1.94856 0.625 L 1.94856 -0.625 Q 1.94856 -1.125 1.51555 -1.375 Z " fill="url(#gradient)" />
</svg>